<svg width="32" height="32" viewBox="0 0 64 64" fill="none" xmlns="http://www.w3.org/2000/svg">
  <!-- Body -->
  <ellipse cx="30" cy="34" rx="22" ry="18" fill="#F97316" stroke="#C2410C" stroke-width="2"/>
  <!-- White stripes -->
  <path d="M18 18C20 22 20 44 18 50" stroke="white" stroke-width="5" stroke-linecap="round" fill="none"/>
  <path d="M32 19C34 24 34 44 32 49" stroke="white" stroke-width="5" stroke-linecap="round" fill="none"/>
  <path d="M44 23C45 27 45 40 44 44" stroke="white" stroke-width="4" stroke-linecap="round" fill="none"/>
  <!-- Tail fin -->
  <path d="M50 28C58 22 60 30 56 34C60 38 58 46 50 40" fill="#FB923C" stroke="#C2410C" stroke-width="1.5"/>
  <!-- Top fin -->
  <path d="M22 18C26 8 36 6 38 16" fill="#FB923C" stroke="#C2410C" stroke-width="1.5" stroke-linejoin="round"/>
  <!-- Eye -->
  <circle cx="14" cy="30" r="6" fill="white" stroke="#1E293B" stroke-width="1.5"/>
  <circle cx="13" cy="30" r="3.5" fill="#1E293B"/>
  <circle cx="11.5" cy="28.5" r="1.5" fill="white"/>
  <!-- Smile -->
  <path d="M8 38C10 41 14 42 16 40" stroke="#C2410C" stroke-width="1.5" stroke-linecap="round" fill="none"/>
</svg>
